PathFileType	4	(X/Y/Z)	59_2_99_p1_0-361.trc
DataRate	CameraRate	NumFrames	NumMarkers	Units	OrigDataRate	OrigDataStartFrame	OrigNumFrames
46.0	46.0	5	27	m	46.0	271	362
Frame#	Time	RHip			RKnee			RAnkle			RBigToe			RSmallToe			RHeel			LHip			LKnee			LAnkle			LBigToe			LSmallToe			LHeel			Neck			Head			Nose			RShoulder			RElbow			RWrist			RThumb			RIndex			RPinky			LShoulder			LElbow			LWrist			LThumb			LIndex			LPinky			
		X1	Y1	Z1	X2	Y2	Z2	X3	Y3	Z3	X4	Y4	Z4	X5	Y5	Z5	X6	Y6	Z6	X7	Y7	Z7	X8	Y8	Z8	X9	Y9	Z9	X10	Y10	Z10	X11	Y11	Z11	X12	Y12	Z12	X13	Y13	Z13	X14	Y14	Z14	X15	Y15	Z15	X16	Y16	Z16	X17	Y17	Z17	X18	Y18	Z18	X19	Y19	Z19	X20	Y20	Z20	X21	Y21	Z21	X22	Y22	Z22	X23	Y23	Z23	X24	Y24	Z24	X25	Y25	Z25	X26	Y26	Z26	X27	Y27	Z27	
271	5.891304347826087	0.33564449686751	0.5685523919274773	1.0719278800895036	0.32536946157613855	0.6554264127848837	1.4957140968065978	0.30228160761913203	0.8057900601639706	1.9052555859261615	0.27833554013981376	0.5625090616297045	1.943870561382224	0.3422340113905928	0.5983763313745956	1.9299421131905241	0.28624929983665764	0.8471523324187948	1.9594799183470848	0.124067445020038	0.5492664656480168	1.0851604937159083	0.12945337943568094	0.6656408205947294	1.5057463966667963	0.13518227727802642	0.747225303161376	1.8849511325370853	0.12695096753577673	0.5571890646939506	1.92477053609259	0.0745077307932066	0.6083408374958365	1.9196766991312635	0.14643440398559934	0.8258775956964823	1.9294388392198096	0.23130078617377847	0.437136739329643	0.4951925798525049	0.2253710595214704	0.36580714005557874	0.2399561154420748	0.2245107188831884	0.31735642591678265	0.3796995431431056	0.395735141560144	0.453958906576206	0.5995852831813133	0.4082067916003175	0.42865017794592153	0.8546429343069302	0.287114400044388	0.36658227963400447	1.045558301525469	0.1970788056109462	0.4063423030836359	1.1288367237132249	0.18683561623288916	0.4267349915263221	1.1608400914729298	0.20778279313131456	0.4068578824244724	1.1660820387538164	0.08166578324910839	0.4664390569123187	0.6010985223476604	0.0675424031238127	0.4340225544182702	0.8646962616173263	0.17340988847394787	0.38121612487897677	1.0621439824892716	0.2235562526314346	0.37395959480824137	1.0988642699387556	0.2178816270149549	0.3845407328297183	1.1545428030883043	0.20046286369864602	0.38596916110145285	1.166406953573724
272	5.913043478260869	0.3357045361394875	0.5687180568883013	1.0719341063525245	0.3253562055956271	0.6553161665799021	1.4956183164677006	0.30325493163937717	0.8037799294605315	1.9005000952943822	0.2742351284553023	0.550735760670249	1.9345866660262123	0.34210961215680535	0.5973776261857279	1.9297981343931372	0.2862993965460622	0.8471805728300789	1.9597119546888149	0.12759702622769598	0.5603694587920361	1.0779295763687655	0.12927354184073692	0.6671917181733624	1.5019035409187762	0.13535043920882114	0.7473144006512793	1.8847682758862778	0.1268616136284763	0.5572473638481535	1.9247642356297512	0.06982935042758852	0.6231736524199417	1.9260815818614807	0.14674269388282507	0.8268864808003644	1.9289730209263152	0.23134280193092538	0.4371752369023218	0.4951273757539493	0.22542978310540815	0.36575516115746093	0.2399486299854155	0.22468231484947976	0.31773043450505717	0.37958882586676396	0.39572091666300624	0.45406924543299704	0.5995875370992114	0.40820532524273406	0.4287807726926306	0.8546500149849715	0.28711879372415267	0.36645455408817057	1.0455033468461332	0.200335379550474	0.3932611588517452	1.1329292293265618	0.19075740841220523	0.4138569296427014	1.1612389112965813	0.20758706906981186	0.40725523458563734	1.166003081028064	0.0816324539247566	0.46649023807179035	0.6011573386284168	0.0711211611927805	0.4441707456379451	0.86606030671827	0.1734278169515373	0.3812182399780794	1.0621349497060666	0.22745339313248997	0.3749040323687008	1.101889750760723	0.22168399491062635	0.3850738575848465	1.1543782095008341	0.196071717063103	0.39789936852690977	1.168544091062788
273	5.934782608695652	0.3362585011980604	0.567241829687271	1.0681465964992416	0.32530928521403213	0.6552759568644287	1.4955945838008247	0.30324661810048914	0.80378853947363	1.9002566226879258	0.27434616994195354	0.5507299199641711	1.9345524178538442	0.34225076350588	0.597651622137712	1.9298405752365924	0.2862951266833322	0.8473105895931657	1.9597823750794974	0.12752393764471753	0.5637273146899057	1.0868389173170094	0.1331249825320297	0.6501917654434086	1.492006545845151	0.1343561517310142	0.7445799139164258	1.8793135795092997	0.12389870765502023	0.5436857899624404	1.9189348357031015	0.06974651781280433	0.6229673725102495	1.9260729617054912	0.14665534464310687	0.8270757933971793	1.9290525764701056	0.23134305438714306	0.43727993681507527	0.4952214657448929	0.22544604904012483	0.36582973141704045	0.239960984560578	0.2277894754230731	0.3286031808712883	0.3788718493636433	0.40005832626216103	0.45609956050735107	0.5995319552177755	0.4081409512558387	0.42872094030255303	0.8546530618805354	0.2870472905649117	0.36626834957844184	1.045559795502033	0.19967726357234028	0.39473057108873916	1.1409319318444908	0.19576426586715387	0.3993083279508983	1.1587934452002944	0.20828322443377256	0.3836759027396739	1.161695613681424	0.08137404736104811	0.46742059770186073	0.6045762672155046	0.0721224428772392	0.42149094306156726	0.8635979092017243	0.1735337184296849	0.38099343942488184	1.062169581209887	0.22843368342013323	0.37569113173235985	1.1137867165041315	0.22184232697050937	0.38450570836378456	1.1549033447189456	0.20050329194762487	0.3853459992055683	1.1664129348579164
274	5.956521739130435	0.3362829066447277	0.5673104072746018	1.068147306850756	0.3253061790737822	0.655294388086505	1.4955392151811238	0.3028947317215549	0.8058259031686914	1.8964617605116487	0.2790241895006105	0.5621967922552243	1.9351104569781021	0.34223830643641634	0.5974606007187834	1.929900628351452	0.2862458292343022	0.8470125482980307	1.9597371749359467	0.12391566208159902	0.5502381194209449	1.0820447666513013	0.12903112609449655	0.6671556890274873	1.502068938624078	0.13443346491399852	0.7440204716942121	1.8790824625312295	0.124046892626731	0.5439707745763784	1.919028466616777	0.06980334911710856	0.6228982028362495	1.9260248100310708	0.14666785228011975	0.8262808620946189	1.9290149614839258	0.23133830103345446	0.4373708920488133	0.4952265946167252	0.22558173300959672	0.36580127788825767	0.23992980009407044	0.22774229010658792	0.3293177533735972	0.382324189424274	0.4000802052054864	0.45611958354793797	0.5995066815318043	0.4080185666747794	0.42863678352470974	0.8546553856033342	0.2871796500065197	0.3662401549664049	1.0456500145638692	0.19884826299091815	0.3942284899388166	1.1397418472380703	0.19541023818154432	0.399423950469709	1.1585173965810318	0.20897238770350046	0.38330261162001544	1.1621770960678401	0.08170228058029534	0.466652946664711	0.6011238753861982	0.07522084869400497	0.4328717987729493	0.8681968920512767	0.17770845633180946	0.3675504565197926	1.0598092629010525	0.22288367350578378	0.3707405749807211	1.1016667492171284	0.21740909989935137	0.38471632120667126	1.1583780747259211	0.20049721137338183	0.3849695258924672	1.1663574796682066
275	5.978260869565218	0.3362646487497565	0.5671771206993963	1.0681326103993056	0.3205614756016978	0.653993531187805	1.4953649866048324	0.29774897830851504	0.7916283509873421	1.8953876601003037	0.27432343475075943	0.550668205722887	1.9345578768897036	0.34223025858473893	0.597186943030892	1.9298446324406169	0.2859142705676613	0.8490994325843734	1.9558410798839643	0.12396287195852951	0.5494108674692761	1.0850762802982057	0.12845820266286637	0.6647535486699526	1.496295606008573	0.1344497921536272	0.7443017421356637	1.879172548069027	0.12398466932571804	0.5435198190514057	1.9188192493396632	0.06976311717847176	0.6228549074198029	1.9260406818268545	0.14680787097166936	0.8269707926198684	1.9288086810829284	0.2313464860487339	0.43743581272107873	0.49522966636158966	0.2255912769796032	0.3658696264534396	0.23990926867682616	0.22779209146273152	0.3294328791089805	0.3822730908603413	0.40010705975746397	0.45613942599805096	0.5995036842752349	0.40789654895410626	0.42865776839098557	0.8546425997190933	0.2870192437854978	0.3659085990076202	1.0454401738344836	0.19851475151305722	0.3959428954785369	1.144129166194818	0.195432064632219	0.3996963678701505	1.1586973965952787	0.20876875680745327	0.38286737063500115	1.1576766863602812	0.0817129663696084	0.4666246660282184	0.601061613867722	0.07257217136938773	0.4207570980782217	0.8671133158169817	0.1776335202239865	0.3675140401378506	1.059735268016868	0.22379572849739748	0.37277540483267846	1.1063854469909409	0.21740398935618843	0.38493076988070685	1.158552968821659	0.20022634118729407	0.3857870758920451	1.163386678678832
